HIERARCHY
ROOT Hips
{
	OFFSET 0.000000 0.000000 0.000000
	CHANNELS 6 Xposition Yposition Zposition Zrotation Yrotation Xrotation 
	JOINT LHipJoint
	{
		OFFSET 0.000000 0.000000 0.000000
		CHANNELS 3 Zrotation Yrotation Xrotation
		JOINT LeftUpLeg
		{
			OFFSET 1.363060 -1.794630 0.839290
			CHANNELS 3 Zrotation Yrotation Xrotation
			JOINT LeftLeg
			{
				OFFSET 2.448110 -6.726130 0.000000
				CHANNELS 3 Zrotation Yrotation Xrotation
				JOINT LeftFoot
				{
					OFFSET 2.562200 -7.039590 0.000000
					CHANNELS 3 Zrotation Yrotation Xrotation
					JOINT LeftToeBase
					{
						OFFSET 0.157640 -0.433110 2.322550
						CHANNELS 3 Zrotation Yrotation Xrotation
						End Site
						{
							OFFSET 0.000000 0.000000 0.000000
						}
					}
				}
			}
		}
	}
	JOINT RHipJoint
	{
		OFFSET 0.000000 0.000000 0.000000
		CHANNELS 3 Zrotation Yrotation Xrotation
		JOINT RightUpLeg
		{
			OFFSET -1.305520 -1.794630 0.839290
			CHANNELS 3 Zrotation Yrotation Xrotation
			JOINT RightLeg
			{
				OFFSET -2.542530 -6.985550 0.000000
				CHANNELS 3 Zrotation Yrotation Xrotation
				JOINT RightFoot
				{
					OFFSET -2.568260 -7.056230 0.000000
					CHANNELS 3 Zrotation Yrotation Xrotation
					JOINT RightToeBase
					{
						OFFSET -0.164730 -0.452590 2.363150
						CHANNELS 3 Zrotation Yrotation Xrotation
						End Site
						{
							OFFSET 0.000000 0.000000 0.000000
						}
					}
				}
			}
		}
	}
	JOINT LowerBack
	{
		OFFSET 0.000000 0.000000 0.000000
		CHANNELS 3 Zrotation Yrotation Xrotation
		JOINT Spine
		{
			OFFSET 0.028270 2.035590 -0.193380
			CHANNELS 3 Zrotation Yrotation Xrotation
			JOINT Spine1
			{
				OFFSET 0.056720 2.048850 -0.042750
				CHANNELS 3 Zrotation Yrotation Xrotation
				JOINT Neck
				{
					OFFSET 0.000000 0.000000 0.000000
					CHANNELS 3 Zrotation Yrotation Xrotation
					JOINT Neck1
					{
						OFFSET -0.054170 1.746240 0.172020
						CHANNELS 3 Zrotation Yrotation Xrotation
						JOINT Head
						{
							OFFSET 0.104070 1.761360 -0.123970
							CHANNELS 3 Zrotation Yrotation Xrotation
							End Site
							{
								OFFSET 0.000000 0.000000 0.000000
							}
						}
					}
				}
				JOINT LeftShoulder
				{
					OFFSET 0.000000 0.000000 0.000000
					CHANNELS 3 Zrotation Yrotation Xrotation
					JOINT LeftArm
					{
						OFFSET 3.362410 1.200890 -0.311210
						CHANNELS 3 Zrotation Yrotation Xrotation
						JOINT LeftForeArm
						{
							OFFSET 4.983000 -0.000000 -0.000000
							CHANNELS 3 Zrotation Yrotation Xrotation
							JOINT LeftHand
							{
								OFFSET 3.483560 -0.000000 -0.000000
								CHANNELS 3 Zrotation Yrotation Xrotation
								JOINT LeftFingerBase
								{
									OFFSET 0.000000 0.000000 0.000000
									CHANNELS 3 Zrotation Yrotation Xrotation
									JOINT LeftHandIndex1
									{
										OFFSET 0.715260 -0.000000 -0.000000
										CHANNELS 3 Zrotation Yrotation Xrotation
										End Site
										{
											OFFSET 0.000000 0.000000 0.000000
										}
									}
								}
								JOINT LThumb
								{
									OFFSET 0.000000 0.000000 0.000000
									CHANNELS 3 Zrotation Yrotation Xrotation
									End Site
									{
										OFFSET 0.000000 0.000000 0.000000
									}
								}
							}
						}
					}
				}
				JOINT RightShoulder
				{
					OFFSET 0.000000 0.000000 0.000000
					CHANNELS 3 Zrotation Yrotation Xrotation
					JOINT RightArm
					{
						OFFSET -3.136600 1.374050 -0.404650
						CHANNELS 3 Zrotation Yrotation Xrotation
						JOINT RightForeArm
						{
							OFFSET -5.241900 -0.000000 -0.000000
							CHANNELS 3 Zrotation Yrotation Xrotation
							JOINT RightHand
							{
								OFFSET -3.444170 -0.000000 -0.000000
								CHANNELS 3 Zrotation Yrotation Xrotation
								JOINT RightFingerBase
								{
									OFFSET 0.000000 0.000000 0.000000
									CHANNELS 3 Zrotation Yrotation Xrotation
									JOINT RightHandIndex1
									{
										OFFSET -0.622530 -0.000000 -0.000000
										CHANNELS 3 Zrotation Yrotation Xrotation
										End Site
										{
											OFFSET 0.000000 0.000000 0.000000
										}
									}
								}
								JOINT RThumb
								{
									OFFSET 0.000000 0.000000 0.000000
									CHANNELS 3 Zrotation Yrotation Xrotation
									End Site
									{
										OFFSET 0.000000 0.000000 0.000000
									}
								}
							}
						}
					}
				}
			}
		}
	}
}
MOTION
Frames: 7
Frame Time: 0.008333
-2.453447 16.796530 0.123811 5.523320 55.558754 18.775214 -9.850906 0.309702 2.150587 -1.983629 3.233057 -34.124360 -2.428652 0.334536 13.758522 -0.299490 -3.968290 5.691363 -0.632800 0.000000 -46.427900 9.981443 -1.462565 2.510370 11.097678 13.961271 -16.411727 1.051757 -2.879932 48.862946 0.662743 9.441185 -14.347620 -0.919300 0.000000 -2.247000 -0.945366 -0.729492 -4.740036 -1.062098 -0.912582 -3.933862 -7.074248 -1.038241 -0.193479 11.451421 -5.654553 -4.964788 -4.186639 -0.359887 0.754403 0.000000 0.000000 0.000000 -4.494963 6.878602 2.194905 -69.410264 22.005522 14.140373 -3.441219 -15.417546 -0.007047 0.199283 6.295765 0.014494 -0.063921 -0.108052 -0.000000 0.000000 0.000000 0.000000 0.000000 0.000000 0.000000 19.566910 -1.042113 -0.897989 72.852674 17.404050 21.764572 1.388595 58.846513 0.005602 -0.447129 8.496186 -0.035706 0.035369 -0.308540 0.000000 0.000000 0.000000 0.000000 0.000000 0.000000 0.000000 
-2.300658 16.785697 0.178754 6.214469 53.940839 19.252683 -9.855163 0.475572 1.876493 -3.134401 4.792321 -34.159066 -2.510606 0.434559 14.980552 -0.231713 -3.361832 5.979889 -0.521600 0.000000 -45.960400 10.319042 -1.514885 2.441984 10.226649 12.759996 -17.992104 0.619448 -3.055632 51.923190 0.396861 7.051276 -13.873233 -0.596900 -0.000000 -5.697900 -1.476982 -0.811027 -4.618552 -1.159013 -0.944462 -3.921085 -7.081370 -1.075516 -0.200475 11.527237 -5.607839 -4.994546 -4.217879 -0.361663 0.742888 0.000000 0.000000 0.000000 -4.526106 6.902939 2.185567 -69.267638 21.859452 14.667202 -3.411146 -15.462751 -0.006171 0.500540 6.216119 0.030901 -0.062009 -0.108115 -0.000000 0.000000 0.000000 0.000000 0.000000 0.000000 0.000000 19.850857 -1.050808 -0.869106 73.182335 17.102546 21.821686 1.425094 57.872727 0.005068 -0.636018 8.523733 -0.050609 0.038138 -0.303905 0.000000 0.000000 0.000000 0.000000 0.000000 0.000000 0.000000 
-2.153358 16.779649 0.232135 6.769799 52.288192 19.635743 -9.843091 0.630945 1.615368 -4.211404 6.273888 -34.143142 -2.593195 0.507989 16.059133 -0.153140 -2.617834 5.896943 -0.357800 -0.000000 -45.631801 10.620820 -1.522984 2.387254 9.445772 11.670389 -19.641098 0.198699 -3.203643 54.771522 0.033237 4.109341 -13.509289 -0.268500 -0.000001 -8.939500 -1.941899 -0.894946 -4.495213 -1.241724 -0.984629 -3.907649 -7.080272 -1.120745 -0.206994 11.565884 -5.527600 -5.027784 -4.247673 -0.363230 0.730208 0.000000 0.000000 0.000000 -4.579398 6.919011 2.184005 -69.143268 21.606516 15.088224 -3.382777 -15.501335 -0.005274 0.815202 6.118783 0.047411 -0.060193 -0.107267 -0.000000 0.000000 0.000000 0.000000 0.000000 0.000000 0.000000 20.088122 -1.032102 -0.832054 73.536389 16.814495 21.849950 1.465429 56.706671 0.004480 -0.840757 8.504766 -0.066420 0.041052 -0.297785 0.000000 0.000000 0.000000 0.000000 0.000000 0.000000 0.000000 
-2.010764 16.778798 0.282953 7.174077 50.613073 19.915290 -9.821073 0.771357 1.380317 -5.162475 7.595564 -34.048667 -2.667631 0.555374 16.990035 -0.061054 -1.737847 5.466312 -0.156700 -0.000000 -45.463100 10.877904 -1.485196 2.342494 8.780552 10.702551 -21.328515 -0.187277 -3.324657 57.342638 -0.415711 0.831574 -13.327711 0.033400 -0.000000 -11.473000 -2.313694 -0.978103 -4.368617 -1.305517 -1.031856 -3.893033 -7.071115 -1.172424 -0.212204 11.565273 -5.414233 -5.063372 -4.275853 -0.364580 0.716755 0.000000 0.000000 0.000000 -4.656975 6.926404 2.190458 -69.043052 21.239026 15.407075 -3.355404 -15.521993 -0.004375 1.143182 6.005490 0.063924 -0.058459 -0.105476 -0.000000 0.000000 0.000000 0.000000 0.000000 0.000000 0.000000 20.272999 -0.985990 -0.786768 73.897022 16.541999 21.837586 1.508480 55.371359 0.003853 -1.059094 8.438194 -0.082839 0.044061 -0.290274 0.000000 0.000000 0.000000 0.000000 0.000000 0.000000 0.000000 
-1.871962 16.783253 0.330495 7.421855 48.926177 20.090478 -9.796752 0.892654 1.181668 -5.945759 8.694802 -33.851206 -2.725496 0.577730 17.769288 0.047685 -0.732738 4.746484 0.060500 0.000000 -45.448100 11.083139 -1.406059 2.303956 8.247134 9.859489 -23.029313 -0.514442 -3.422151 59.594919 -0.917684 -2.498849 -13.433898 0.306700 0.000000 -12.540600 -2.573792 -1.056650 -4.238642 -1.347358 -1.083606 -3.877308 -7.054958 -1.227840 -0.216280 11.526440 -5.272482 -5.099651 -4.302262 -0.365721 0.703097 0.000000 0.000000 0.000000 -4.758254 6.917553 2.204268 -68.970644 20.761980 15.625985 -3.328442 -15.523408 -0.003489 1.485291 5.878392 0.080438 -0.056798 -0.102788 -0.000000 0.000000 0.000000 0.000000 0.000000 0.000000 0.000000 20.403496 -0.916963 -0.732516 74.245396 16.285783 21.775128 1.553669 53.895216 0.003210 -1.288247 8.328026 -0.099165 0.047153 -0.281560 0.000000 0.000000 0.000000 0.000000 0.000000 0.000000 0.000000 
-1.735964 16.792936 0.374505 7.515807 47.235152 20.166985 -9.777894 0.991976 1.025780 -6.532011 9.533500 -33.533466 -2.759762 0.577227 18.395745 0.175270 0.376655 3.822840 0.271600 0.000000 -45.560700 11.231889 -1.295954 2.267955 7.854748 9.138014 -24.722598 -0.767035 -3.501239 61.501363 -1.424677 -5.588156 -13.882682 0.580800 -0.000000 -11.892900 -2.711926 -1.126758 -4.105545 -1.365872 -1.136688 -3.860408 -7.033036 -1.283667 -0.218127 11.453176 -5.103529 -5.135746 -4.326630 -0.366636 0.689508 0.000000 0.000000 0.000000 -4.873843 6.898474 2.224690 -68.926278 20.169515 15.773358 -3.300678 -15.499209 -0.002636 1.842327 5.739438 0.096655 -0.055213 -0.099256 -0.000000 0.000000 0.000000 0.000000 0.000000 0.000000 0.000000 20.479807 -0.824556 -0.670175 74.564770 16.039102 21.645271 1.600461 52.313874 0.002585 -1.519833 8.180803 -0.114697 0.050215 -0.271901 0.000000 0.000000 0.000000 0.000000 0.000000 0.000000 0.000000 
-1.601920 16.807548 0.415187 7.470187 45.546188 20.158146 -9.770550 1.068717 0.914793 -6.909786 10.096427 -33.084717 -2.765709 0.556917 18.868781 0.321785 1.563523 2.796737 0.459300 -0.000000 -45.765300 11.323759 -1.168098 2.231629 7.603345 8.528786 -26.390848 -0.942743 -3.566265 63.039704 -1.884995 -8.190738 -14.603392 0.878801 -0.000000 -10.294600 -2.729573 -1.184921 -3.970324 -1.362210 -1.187399 -3.843304 -7.008640 -1.336242 -0.221069 11.353125 -4.930076 -5.169069 -4.349444 -0.367427 0.676883 0.000000 0.000000 0.000000 -5.005450 6.830083 2.248487 -68.903433 19.516044 15.819018 -3.273064 -15.487164 -0.001836 2.212378 5.594661 0.112473 -0.053719 -0.095145 -0.000000 0.000000 0.000000 0.000000 0.000000 0.000000 0.000000 20.513449 -0.733802 -0.595595 74.836593 15.814472 21.465888 1.650400 50.648686 0.002008 -1.759519 8.011631 -0.129833 0.053480 -0.261595 0.000000 0.000000 0.000000 0.000000 0.000000 0.000000 0.000000 
